<svg version="1.1"  xmlns="http://www.w3.org/2000/svg" xmlns:xlink="http://www.w3.org/1999/xlink" x="0px" y="0px"
	 viewBox="0 0 106 56">

		<path fill="#ffffff" class="st0" d="M53,56c-14.2,0-27.5-2.9-37.5-8.2C5.5,42.5,0,35.5,0,28c0-7.5,5.5-14.5,15.5-19.8C25.5,2.9,38.8,0,53,0
			c14.2,0,27.5,2.9,37.5,8.2c10,5.3,15.5,12.3,15.5,19.8c0,7.5-5.5,14.5-15.5,19.8C80.5,53.1,67.2,56,53,56z M53,1
			C39,1,25.9,3.9,16,9.1C6.3,14.2,1,20.9,1,28c0,7.1,5.3,13.8,15,18.9c9.9,5.2,23,8.1,37,8.1c14,0,27.1-2.9,37-8.1
			c9.7-5.1,15-11.8,15-18.9c0-7.1-5.3-13.8-15-18.9C80.1,3.9,67,1,53,1z"/>

</svg>
