<svg viewBox="0 0 184 208.9">
<path d="M150.2,28.6c-2.5,0-4.5,2-4.5,4.5c0,2.5,2,4.5,4.5,4.5c2.5,0,4.5-2,4.5-4.5C154.8,30.6,152.7,28.6,150.2,28.6z M150.2,36.7
	c-2,0-3.5-1.6-3.5-3.5c0-2,1.6-3.5,3.5-3.5c2,0,3.5,1.6,3.5,3.5C153.8,35.1,152.2,36.7,150.2,36.7z"/>
<path d="M141.7,50.1c-1.1,0-1.9,0.9-1.9,1.9s0.9,1.9,1.9,1.9c1.1,0,1.9-0.9,1.9-1.9S142.8,50.1,141.7,50.1z M141.7,52.9
	c-0.5,0-0.9-0.4-0.9-0.9s0.4-0.9,0.9-0.9s0.9,0.4,0.9,0.9S142.2,52.9,141.7,52.9z"/>
<path d="M81,15.3c-9.8,0-17.8,8-17.8,17.8S71.1,51,81,51s17.8-8,17.8-17.8S90.8,15.3,81,15.3z M81,50c-9.3,0-16.8-7.5-16.8-16.8
	c0-9.3,7.5-16.8,16.8-16.8c9.3,0,16.8,7.5,16.8,16.8C97.8,42.4,90.2,50,81,50z"/>
<path d="M137.6,45.7c-0.6,2.1-1.1,4-1.5,5.3c-0.3,1-0.9,3,0.9,5.5c1,1.4,2.7,2.2,4.5,2.2c2.2,0,4.1-1.3,5.1-3.1l0,0l2.8-4.6l0,0.5
	c0.3,0,0.5,0,0.8,0c10.1,0,18.3-8.2,18.3-18.3c0-10.1-8.2-18.3-18.3-18.3c-10.1,0-18.3,8.2-18.3,18.3c0,4.9,1.9,9.5,5.3,12.9
	L137.6,45.7z M146.3,54.2L146.3,54.2l-0.5,0.8c-0.8,1.6-2.5,2.6-4.2,2.6c-1.6,0-3-0.7-3.7-1.7c-1.4-2-1-3.6-0.7-4.5l0-0.1
	c1.3-5,5.4-18.6,5.4-18.7l0-0.1l0-0.1c0.8-4.2,3.8-6.9,7.7-6.9c4.2,0,7.7,3.5,7.7,7.7c0,1.1-0.3,2.3-0.8,3.3
	c-0.2,0.5-0.5,0.9-0.8,1.4l0,0l0,0L146.3,54.2z M150.2,15.8c9.5,0,17.3,7.8,17.3,17.3c0,9.5-7.8,17.3-17.3,17.3c-0.2,0-0.3,0-0.5,0
	l7.4-12c0.4-0.5,0.7-1,0.9-1.5c0.5-1.1,0.9-2.4,0.9-3.7c0-4.8-3.9-8.7-8.7-8.7c-4.5,0-7.8,3.2-8.6,7.8c0,0-2.1,7.1-3.8,12.9
	c-3.1-3.2-4.9-7.5-4.9-12C132.9,23.6,140.7,15.8,150.2,15.8z"/>
<path d="M81,28.6c-2.5,0-4.5,2-4.5,4.5c0,2.5,2,4.5,4.5,4.5c2.5,0,4.5-2,4.5-4.5C85.5,30.6,83.5,28.6,81,28.6z M81,36.7
	c-2,0-3.5-1.6-3.5-3.5c0-2,1.6-3.5,3.5-3.5c2,0,3.5,1.6,3.5,3.5C84.5,35.1,82.9,36.7,81,36.7z"/>
<path d="M184,83.8l-7.8,7.6H165v1h6.8v5H165v1h11.3l7.8,6.7V83.8z M172.8,92.4h3.4v5h-3.4V92.4z M183,102.9l-5.8-5v-6.1l5.8-5.6
	V102.9z"/>
<path d="M81.5,128h48c3.3,0,6-2.7,6-6v-3c0-3.3-2.7-6-6-6h-48c-3.3,0-6,2.7-6,6v3C75.5,125.3,78.2,128,81.5,128z M76.5,119
	c0-2.8,2.2-5,5-5h48c2.8,0,5,2.2,5,5v3c0,2.8-2.2,5-5,5h-48c-2.8,0-5-2.2-5-5V119z"/>
<path d="M59.1,79.4h3.5v8.5h1V72.4H148v15.5h1V71.4h-8.6v-6.6c3.1,1,6.4,1.5,9.9,1.5c18.3,0,33.1-14.8,33.1-33.1S168.5,0,150.2,0
	c-18.3,0-33.1,14.8-33.1,33.1c0,2.7,0.3,5.4,1,7.9h-4.9c0.6-2.5,1-5.2,1-7.9C114.1,14.8,99.3,0,81,0C62.7,0,47.8,14.8,47.8,33.1
	S62.7,66.3,81,66.3c3,0,5.8-0.4,8.5-1.1v6.2H62.7v7h-4.5v5.3H41.7v-5.3h-4.5v6.3L0,70.3v48.5l37.2-14.2v4.8h3.5v7.8H29v9.3l-5.9,0
	c-0.1,0-2-0.2-3.2,0.9c-0.6,0.5-0.9,1.3-0.9,2.2c0,1.2,0.4,2.2,1.1,2.9c1,1,2.4,1,2.7,1c0,0,0.1,0,0.1,0h38.9v6.9h20.4
	c-1.8,0.8-3.1,2.7-3.1,4.8c0,2.9,2.4,5.3,5.3,5.3h5.9v4.4l-2.7,1.3v8.5l-4.5,1.5v8.3l0.3,0.1c0.5,0.2,0.9,0.4,1.4,0.6l-9.2,33.4
	l1,0.3l9.2-33.4c1.5,0.5,3,0.9,4.5,1.2l-8.2,32l1,0.2l8.3-32c0.6,0.1,1.2,0.2,1.7,0.2v31.7h1v-31.6c0.7,0,1.3,0.1,2,0.1
	c1,0,2-0.1,3-0.1v31.7h1V177c0.6-0.1,1.1-0.1,1.7-0.2l8.3,32.2l1-0.2l-8.3-32.1c1.8-0.3,3.4-0.8,4.5-1.1l9.2,33.5l1-0.3l-9.2-33.5
	c0.7-0.3,1.1-0.4,1.1-0.4l0.3-0.1V166l-4-1.4l-0.3,0.9l3.3,1.1v7.2c-1.9,0.8-13,4.8-24.3,0V167l3.5-1.2v2.8l0.3,0.1
	c2.8,1.4,5.6,1.9,8,1.9c4.8,0,8.3-1.8,8.5-1.9l0.3-0.1v-12.3l-2.2-1.3v-4.5h3.9c2.9,0,5.3-2.4,5.3-5.3c0-2.1-1.3-4-3.1-4.8H149
	v-38.3h16V88.6H59.1V79.4z M150.2,1c17.7,0,32.1,14.4,32.1,32.1s-14.4,32.1-32.1,32.1s-32.1-14.4-32.1-32.1S132.5,1,150.2,1z
	 M48.8,33.1C48.8,15.4,63.2,1,81,1c17.7,0,32.1,14.4,32.1,32.1S98.7,65.3,81,65.3C63.2,65.3,48.8,50.9,48.8,33.1z M90,65
	c11.3-3.2,20.1-12.2,23-23.5V42h5.1v-0.5c2.8,10.9,11.1,19.6,21.7,23.1h-0.5v6.8H90.5V65H90z M103.8,167.9c-1.4,0.6-8.3,3.3-15.1,0
	v-11l2.2-1c2.2,0.9,4.1,1.2,5.8,1.2c2.8,0,4.7-0.9,5.4-1.2l1.7,1V167.9z M101.6,155c-1,0.5-5,2.1-10.2,0v-4.4h10.2V155z
	 M110.8,145.2c0,2.4-1.9,4.3-4.3,4.3H84.4c-2.4,0-4.3-1.9-4.3-4.3s1.9-4.3,4.3-4.3h11h11C108.9,140.9,110.8,142.8,110.8,145.2z
	 M58.1,104H41.7V84.7h16.4V104z M1,117.3V71.7l36.2,14v17.8L1,117.3z M38.2,79.4h2.5v4.3v0.5v20.4v0.5v3.4h-2.5V79.4z M30,118.2
	h11.7v-8.8v-0.5V105h16.4v5.9h3.7v15.6l-31.8,0V118.2z M22.9,132.5c0,0-1.3,0-2.1-0.7c-0.5-0.5-0.8-1.2-0.8-2.1
	c0-0.6,0.2-1.1,0.6-1.5c0.9-0.8,2.4-0.6,2.5-0.6h38.8v5L22.9,132.5z M148,139.4H62.8v-37.3H148V139.4z M59.6,89.6H164v11.6H59.6
	V89.6z M61.8,102.1v7.8h-2.7v-7.8H61.8z"/>
</svg>
