<svg viewBox="0 0 210 192.2">

	<path d="M209.7,9.2c-3.7,0.5-8-1.1-12.5-2.7c-4.2-1.6-8.6-3.2-12.9-3.3c-3.2-0.1-6.5,0.5-9.8,1.6V3.2
		c0-1.8-1.4-3.2-3.1-3.2h-0.5c-1.7,0-3.1,1.4-3.1,3.2v1.5c-25.2-5.2-40-1.2-40.1-1.2c-0.1,0-0.2,0.2-0.2,0.3s0.2,0.2,0.3,0.2
		c3.7-0.5,8,1.1,12.5,2.7c3.8,1.4,7.7,2.8,11.6,3.2c-0.3,0.4-0.5,0.9-0.4,1.4v3.1c0,0,0,0,0,0.1h-1.7c-0.1,0-0.2,0.1-0.2,0.2v2.5
		h0.5V15h8.3v5.1c-2.4-0.8-5.7-1.8-9.7-2.9c-8.9-2.3-23.7-5.1-43.4-5.8c-19.7,0.7-34.5,3.6-43.4,5.8c-4.1,1-7.3,2.1-9.7,2.9V15h8.3
		v2.3h0.5v-2.5c0-0.1-0.1-0.2-0.2-0.2h-1.7c0,0,0,0,0-0.1v-3.1c0-0.5-0.2-1-0.4-1.4c3.9-0.4,7.8-1.8,11.6-3.2
		c4.5-1.7,8.8-3.2,12.5-2.7c0.1,0,0.3-0.1,0.3-0.2c0-0.1-0.1-0.3-0.2-0.3c-0.1,0-14.9-4-40.1,1.2V3.2c0-1.8-1.4-3.2-3.1-3.2h-0.5
		c-1.7,0-3.1,1.4-3.1,3.2v1.6c-3.4-1.1-6.7-1.6-9.8-1.6C21.3,3.3,17,4.9,12.8,6.5C8.2,8.1,4,9.7,0.3,9.2C0.2,9.2,0,9.3,0,9.4
		c0,0.1,0.1,0.3,0.2,0.3c0.1,0,11.6,3.2,31.7,0.3c-0.1,0.4-0.2,0.7-0.2,1.1v11h-0.1c-2.1,0-2.7,2.5-2.7,2.6c0,6,7.2,6.3,7.3,6.3
		c0.1,0,11.3-0.7,14.2,1.7c2.9,2.4,15.3,5.4,17,5.8l0.6,7.9c0,0-2.5,15.5-5.5,34.5c-1.7,10.5-1,17.2,1.9,18.5c0.3,0.1,0.6,0.2,1,0.2
		c1.2,0,2.5-0.8,3.8-2.4c3.7-4.7,4-8.4,4.2-10.5c0-0.2,0-0.4,0-0.5c0-0.3,0.1-1.1,0.2-2.2c0.5-5.3,1.5-17.7,2.5-23.6
		c1-6.3,5.3-13.6,6.2-15.1c5.4,6.2,13.5,7.5,18.5,7.7v2.3h-2.1c-0.1,0-0.2,0.1-0.2,0.2v3.6c0,0.1,0.1,0.2,0.2,0.2h2.1v8.9h-3.7
		c-1.7,0-3.1,1.4-3.1,3.2v1H87c-1.2,0-2.2,1-2.2,2.2v5.9c0,1.2,1,2.2,2.2,2.2h6.9c0.1,1.7,1.5,3,3.1,3h16.2c1.7,0,3-1.3,3.1-3h3.3
		c1.2,0,2.2-1,2.2-2.2v-5.9c0-1.2-1-2.2-2.2-2.2h-3.3v-1c0-1.8-1.4-3.2-3.1-3.2h-2.6v-8.9h2.1c0.1,0,0.2-0.1,0.2-0.2v-3.6
		c0-0.1-0.1-0.2-0.2-0.2h-2.1v-2.4c5-0.4,12.2-2,17.1-7.6c0.9,1.5,5.2,8.8,6.2,15.1c0.9,5.9,2,18.2,2.5,23.5
		c0.1,1.1,0.2,1.9,0.2,2.2c0,0.2,0,0.3,0,0.5c0.2,2,0.5,5.8,4.2,10.5c1.6,2,3.4,2.9,4.8,2.2c2.9-1.3,3.6-8,1.9-18.5
		c-3-18.9-5.5-34.4-5.5-34.4l0.6-8c1.7-0.4,14.1-3.4,17-5.8c2.9-2.4,14.1-1.7,14.3-1.7c0.1,0,7.3-0.3,7.3-6.3c0,0-0.6-2.5-2.7-2.5
		h-0.1v-11c0-0.4-0.1-0.8-0.2-1.1c20,2.9,31.5-0.3,31.7-0.3c0.1,0,0.2-0.2,0.2-0.3S209.9,9.2,209.7,9.2z M93.9,82.3H87
		c-0.9,0-1.7-0.8-1.7-1.7v-5.9c0-0.9,0.7-1.7,1.7-1.7h6.9V82.3z M116.3,73h3.3c0.9,0,1.7,0.8,1.7,1.7v5.9c0,0.9-0.7,1.7-1.7,1.7
		h-3.3V73z M168.3,5.3c0.1,0,0.3,0.1,0.4,0.1c-0.1,0.1-0.3,0.1-0.4,0.2V5.3z M168.3,6.2c0.8-0.4,1.2-0.7,1.2-0.7
		c0.1-0.1,0.1-0.2,0.1-0.3s-0.1-0.2-0.2-0.2c-0.4-0.1-0.8-0.2-1.1-0.2V3.2c0-1.5,1.2-2.7,2.6-2.7h0.5c1.4,0,2.6,1.2,2.6,2.7V7
		l-4.7,0c0,0,0,0,0,0h-1.1V6.2z M174.2,7.5c1,0,1.9,0.4,2.5,1.1c0.3,0.3,0.6,0.8,0.8,1.3c0,0,0,0,0,0.1c0.1,0.4,0.2,0.8,0.2,1.3v11
		h-14.1v-11c0-2,1.6-3.7,3.6-3.7H174.2z M166.5,7.1c0.5-0.2,0.9-0.4,1.3-0.6V7h-0.5C167,7,166.7,7,166.5,7.1z M140.4,6.3
		c-3.5-1.3-6.9-2.5-10-2.8c5.3-0.9,18.3-2.2,37.4,1.8v0.7C165.5,7,161,9,155.7,9.4c0,0,0,0-0.1,0c-0.9,0.1-1.7,0.1-2.5,0.1
		c0,0,0,0,0,0c0,0,0,0,0,0c-0.2,0-0.4,0-0.6,0l-0.3,0c0,0-0.1,0-0.1,0C148.3,9.2,144.3,7.7,140.4,6.3z M156.1,14.2h-4.3v-2.9
		c0-0.5,0.2-1,0.6-1.4c0.3,0,0.5,0,0.8,0c0.8,0,1.6,0,2.4-0.1c0.4,0.4,0.6,0.9,0.6,1.4V14.2z M156.6,14.5
		C156.6,14.5,156.6,14.5,156.6,14.5l0-3.2c0-0.5-0.2-1-0.5-1.5c3.4-0.3,6.5-1.3,8.9-2.2c-1.1,0.7-1.8,2-1.8,3.5v11h-0.1
		c-0.3-0.1-1.8-0.8-4.5-1.8v-5.5c0-0.1-0.1-0.2-0.2-0.2H156.6z M53.4,14.5h-1.7c-0.1,0-0.2,0.1-0.2,0.2v5.5
		c-2.7,0.9-4.2,1.6-4.5,1.8h-0.1v-11c0-1.4-0.7-2.7-1.8-3.5c2.3,0.9,5.4,1.9,8.9,2.2c-0.3,0.4-0.5,0.9-0.5,1.5L53.4,14.5
		C53.4,14.5,53.4,14.5,53.4,14.5z M58.2,14.2h-4.3v-2.9c0-0.5,0.2-1,0.6-1.4c0.6,0,1.2,0.1,1.9,0.1c0.2,0,0.4,0,0.5,0
		c0,0,0.1,0,0.1,0c0.2,0,0.4,0,0.6,0c0.4,0.4,0.6,0.9,0.6,1.4V14.2z M42.3,5.2c19.1-4,32.1-2.6,37.4-1.8c-3.1,0.3-6.5,1.5-10,2.8
		c-3.9,1.4-7.9,2.9-11.8,3.2c0,0-0.1,0-0.1,0l-0.3,0c-0.1,0-0.3,0-0.4,0c0,0-0.1,0-0.1,0c-0.1,0-0.3,0-0.4,0c-0.6,0-1.3,0-2.1-0.1
		c0,0,0,0,0,0c0,0,0,0,0,0C49,9,44.5,7,42.3,5.9V5.2z M42.3,6.4c0.4,0.2,0.8,0.4,1.3,0.6C43.3,7,43,7,42.7,7h-0.5V6.4z M36,3.2
		c0-1.5,1.2-2.7,2.6-2.7h0.5c1.4,0,2.6,1.2,2.6,2.7v1.6C41.4,4.9,41,5,40.6,5c-0.1,0-0.2,0.1-0.2,0.2s0,0.2,0.1,0.3
		c0,0,0.5,0.3,1.2,0.7V7h-1.1c0,0,0,0,0,0L36,7V3.2z M41.8,5.3v0.3c-0.2-0.1-0.3-0.2-0.4-0.2C41.5,5.4,41.6,5.3,41.8,5.3z M35.8,7.5
		h7c2,0,3.6,1.6,3.6,3.7v11H32.2v-11c0-0.5,0.1-0.9,0.2-1.3c0,0,0,0,0,0c0.2-0.4,0.4-0.8,0.7-1.1C33.8,7.9,34.7,7.5,35.8,7.5z
		 M2.9,9.8C6,9.5,9.4,8.3,12.9,7c4.2-1.5,8.5-3.1,12.8-3.2c3.2-0.1,6.5,0.5,9.8,1.6V7c-1.1,0.1-2.1,0.6-2.8,1.5
		c-0.3,0.3-0.5,0.6-0.6,1C17.4,11.6,7.4,10.5,2.9,9.8z M113.2,68.7c1.4,0,2.6,1.2,2.6,2.7v11.1c0,1.5-1.2,2.7-2.6,2.7H97.1
		c-1.4,0-2.6-1.2-2.6-2.7v0c0,0,0,0,0,0v-9.8c0,0,0,0,0,0v-1.3c0-1.5,1.2-2.7,2.6-2.7H113.2z M112.5,55.7v3.1h-2.1
		c-0.1,0-0.2,0.1-0.2,0.2v9.2h-8.9v-8.9h6.5v-0.5h-8.9v-3.1h10.6v-0.5h-8.2v-2.3c0.7,0,1.3,0,1.8,0h3.9c0.6,0,1.3,0,2.1,0h1.1v2.5
		c0,0.1,0.1,0.2,0.2,0.2H112.5z M109.1,52.4h-2.2c-1.2,0-1.8-0.1-1.9-0.1c0,0,0,0-0.1,0c0,0-0.7,0.1-1.9,0.1H101c0,0,0,0,0,0
		c-4-0.1-10.4-1-15.5-4.9h4.4c0,0,0.1,0,0.1,0l7.7-3.8h14.6l7.7,3.8c0,0,0.1,0,0.1,0h4.4C119.5,51.4,113.1,52.3,109.1,52.4z
		 M178.4,22.6c1.7,0,2.2,2.1,2.2,2.1c0,5.5-6.5,5.7-6.8,5.8c-0.5,0-11.5-0.8-14.6,1.8c-3,2.5-16.8,5.7-17,5.8
		c-0.1,0-0.2,0.1-0.2,0.2l-0.6,8.2c0,0,2.5,15.5,5.5,34.5c2.4,15-0.6,17.5-1.6,18c-1.2,0.5-2.7-0.3-4.2-2.1
		c-3.6-4.6-3.9-8.1-4.1-10.2c0-0.2,0-0.4,0-0.5c0-0.3-0.1-1.1-0.2-2.2c-0.5-5.3-1.5-17.6-2.5-23.6c-1-6.6-5.6-14.1-6.4-15.4
		c0.2-0.2,0.5-0.3,0.8-0.2c1.5,0.2,3.5,3.4,4.1,4.6c0,0,0,0.1,0.1,0.1l3.2,2.3c5.5,18.2,5.9,31.8,5.7,37.8l-2.6-4l-0.4,0.3l3,4.6
		c-0.1,1.6-0.2,2.4-0.2,2.4l0.5,0.1c0-0.2,2-16.6-5.5-41.4c0-0.1,0-0.1-0.1-0.1l-3.2-2.3c-0.3-0.5-2.5-4.5-4.5-4.8
		c-0.5-0.1-1,0.1-1.4,0.5l0.2,0.2l-0.2-0.2c-0.8,0.9-1.6,1.7-2.4,2.4h-5l-7.7-3.8c0,0-0.1,0-0.1,0H97.6c0,0-0.1,0-0.1,0L89.8,47h-5
		c-0.9-0.7-1.7-1.5-2.4-2.4l-0.2,0.2l0.2-0.2c-0.4-0.4-0.9-0.6-1.4-0.5c-2,0.3-4.2,4.2-4.5,4.8l-3.2,2.3c0,0-0.1,0.1-0.1,0.1
		c-7.5,24.8-5.5,41.2-5.5,41.4l0.5-0.1c0,0-0.1-0.9-0.2-2.4l3-4.6l-0.4-0.3l-2.6,4c-0.2-6,0.2-19.6,5.7-37.8l3.2-2.3
		c0,0,0.1-0.1,0.1-0.1c0.6-1.2,2.6-4.3,4.1-4.6c0.3,0,0.6,0,0.8,0.2c-0.8,1.3-5.3,8.9-6.4,15.4c-0.9,6-2,18.3-2.5,23.6
		c-0.1,1.1-0.2,1.8-0.2,2.1c0,0.2,0,0.3,0,0.5c-0.2,2.1-0.5,5.6-4.1,10.2c-1.4,1.8-3,2.6-4.2,2.1c-1-0.4-4-3-1.6-18
		c3-19,5.5-34.5,5.5-34.5l-0.6-8.1c0-0.1-0.1-0.2-0.2-0.2c-0.1,0-14-3.3-17-5.8c-1.9-1.6-7.1-1.9-10.7-1.9c-2.1,0-3.7,0.1-3.9,0.1
		c0,0-1.7-0.1-3.4-0.8c-1.4-0.6-2.3-1.5-2.9-2.6h116c0.1,0,0.2-0.1,0.2-0.2s-0.1-0.2-0.2-0.2H29.6c-0.2-0.5-0.3-1.1-0.3-1.8
		c0,0,0.5-2.1,2.2-2.1h0.4c0,0,0,0,0,0h14.6c0,0,0,0,0,0h0.4c0,0,0.1,0,0.1,0c0,0,5.1-2.3,14.7-4.8c8.9-2.3,23.6-5.1,43.2-5.8
		c37.6,1.3,57.8,10.5,58,10.6c0,0,0.1,0,0.1,0h0.4c0,0,0,0,0,0h14.6c0,0,0,0,0,0H178.4z M178,9.5c-0.2-0.4-0.4-0.8-0.8-1.2
		c-0.7-0.8-1.7-1.2-2.7-1.3V5.3c3.4-1.1,6.6-1.6,9.8-1.6c4.2,0.1,8.6,1.7,12.8,3.2c3.5,1.3,6.9,2.5,10,2.8
		C202.6,10.5,192.6,11.6,178,9.5z"/>
	<path d="M105.4,82.8c3.2,0,5.8-2.6,5.8-5.9c0-3.3-2.6-5.9-5.8-5.9c-3.2,0-5.8,2.6-5.8,5.9
		C99.6,80.1,102.2,82.8,105.4,82.8z M105.4,71.5c2.9,0,5.3,2.4,5.3,5.4c0,3-2.4,5.4-5.3,5.4s-5.3-2.4-5.3-5.4
		C100.1,73.9,102.5,71.5,105.4,71.5z"/>
	<path d="M105.4,79.5c1.4,0,2.6-1.2,2.6-2.7s-1.2-2.7-2.6-2.7c-1.4,0-2.6,1.2-2.6,2.7S103.9,79.5,105.4,79.5z
		 M105.4,74.7c1.2,0,2.1,1,2.1,2.2c0,1.2-0.9,2.2-2.1,2.2s-2.1-1-2.1-2.2C103.3,75.7,104.2,74.7,105.4,74.7z"/>
	<path d="M182.3,177.1c-1-0.8-2.6-1.6-4.6-2.4c-4-1.5-9.6-2.8-16.9-4c-14.9-2.4-34.6-3.7-55.6-3.7
		c-21,0-40.8,1.3-55.6,3.7c-7.2,1.2-12.9,2.5-16.9,4c-2,0.8-3.6,1.6-4.6,2.4c-1.1,0.8-1.6,1.7-1.6,2.5s0.5,1.7,1.6,2.5
		c1,0.8,2.6,1.6,4.6,2.4c4,1.5,9.6,2.8,16.9,4c14.9,2.4,34.6,3.7,55.6,3.7c21,0,40.8-1.3,55.6-3.7c7.2-1.2,12.9-2.5,16.9-4
		c2-0.8,3.6-1.6,4.6-2.4c1.1-0.8,1.6-1.7,1.6-2.5S183.3,178,182.3,177.1z M181.9,181.8c-1,0.8-2.5,1.5-4.5,2.3
		c-3.9,1.5-9.6,2.8-16.8,4c-14.8,2.4-34.6,3.7-55.6,3.7c-21,0-40.7-1.3-55.6-3.7c-7.2-1.2-12.8-2.5-16.8-4c-2-0.7-3.5-1.5-4.5-2.3
		c-0.9-0.7-1.4-1.5-1.4-2.1s0.5-1.4,1.4-2.1c1-0.8,2.5-1.5,4.5-2.3c3.9-1.5,9.6-2.8,16.8-4c14.8-2.4,34.6-3.7,55.6-3.7
		c21,0,40.7,1.3,55.6,3.7c7.2,1.1,12.8,2.5,16.8,4c2,0.7,3.5,1.5,4.5,2.3c0.9,0.7,1.4,1.5,1.4,2.1
		C183.4,180.4,182.9,181.1,181.9,181.8z"/>
	<path d="M130.1,177.8l-0.1,0l-24.7,1.4l-6.6-4.1l-0.2,0c-3.4,0.1-6.5,0.4-9.3,0.7c-2.8,0.3-5.1,0.8-6.9,1.2
		c-1.9,0.5-3.1,1.1-3.6,1.7c-0.4,0.4-0.4,0.8-0.4,1.1c0.1,0.5,0.4,0.9,1.1,1.3l0.1,0.1l25.4-1.1l8.8,4l0.1,0
		c3.3-0.2,6.3-0.5,8.8-0.8c2.6-0.4,4.7-0.8,6.2-1.3c1.7-0.6,2.6-1.2,2.8-1.9C132.1,179.2,131.5,178.4,130.1,177.8z M79.9,180.2
		c-0.4-0.3-0.5-0.5-0.5-0.5c0-0.1,0-0.2,0.1-0.3c0.2-0.3,0.9-0.8,3.1-1.4c1.7-0.5,4-0.9,6.7-1.2c2.7-0.3,5.7-0.6,9-0.7l5.1,3.1
		L79.9,180.2z M130.9,179.7c0,0.1-0.3,0.6-2.2,1.3c-1.5,0.5-3.5,0.9-6,1.3c-2.5,0.4-5.4,0.6-8.6,0.8l-6.8-3.1l22.5-1.3
		C130.7,179.2,130.9,179.5,130.9,179.7z"/>

</svg>
