<?xml version="1.0" encoding="utf-8"?>
<!-- Generator: Adobe Illustrator 24.1.0, SVG Export Plug-In . SVG Version: 6.00 Build 0)  -->
<svg version="1.1" id="Layer_1" xmlns="http://www.w3.org/2000/svg" xmlns:xlink="http://www.w3.org/1999/xlink" x="0px" y="0px"
	 viewBox="0 0 3200.7 1055" style="enable-background:new 0 0 3200.7 1055;" xml:space="preserve">
<g>
	<polygon points="1831.7,62.3 1825.2,57.7 1712.9,137.5 1529.7,2.4 1526.3,0 1526.3,101.2 1550,118 1550,48.6 1926.6,326.2 
		1843,386.2 1382.1,58.6 1380.9,57.8 881.3,412.7 876,416.5 919.5,416.5 1380.9,88.5 1841.8,416.1 1843,416.9 1967.1,328.2 
		1969.4,326.6 1734.2,153.2 1825.2,88.6 2280.8,412.4 2281.4,412.7 2324.7,412.7 	"/>
	<polygon points="1465.6,313.3 1325.7,412.8 1369.1,412.8 1465.6,344.1 1684.1,500.2 1550,596.5 1550,465.5 1526.3,448.7 
		1526.3,644.3 1724.9,501.9 1727.3,500.2 1466.8,314.2 	"/>
	<g>
		<g>
			<g>
				<g>
					<polygon points="94.9,1034.3 94.9,1053.7 0,1053.7 0,897.7 20.6,897.7 20.6,1034.3 					"/>
				</g>
				<g>
					<polygon points="303.6,1034.6 303.6,1053.7 193.4,1053.7 193.4,897.7 300.8,897.7 300.8,916.6 214,916.6 214,966.5 292,966.5 
						292,984.2 214,984.2 214,1034.6 					"/>
				</g>
				<g>
					<path d="M528,918.2c-14.7-13.7-36.7-20.6-64.9-20.6h-52.4v155.9h50.6c30.4,0,53-7.1,67.5-20.9c14.5-14.3,21.8-33.2,21.8-57.6
						C550.5,950.4,543.1,931.7,528,918.2z M512.9,1019.7c-11.1,9.9-27.2,14.9-47.7,14.9h-33.8V916.2h30.8
						c44.7,0,67.5,20.1,67.5,59.4C529.6,994.7,524,1009.6,512.9,1019.7z"/>
				</g>
				<g>
					<polygon points="767.1,1034.6 767.1,1053.7 656.8,1053.7 656.8,897.7 764.4,897.7 764.4,916.6 677.5,916.6 677.5,966.5 
						755.4,966.5 755.4,984.2 677.5,984.2 677.5,1034.6 					"/>
				</g>
				<g>
					<path d="M960.1,995.9l4.6-1.2c22-6.7,32.6-22.4,32.6-47.7c0-17.1-5-29.6-14.9-37.5c-10.1-7.8-27.4-11.9-51.2-11.9H874v155.9
						h20.8V999h41.3l38.9,54.6h26.4L960.1,995.9z M932.5,980.8h-37.7v-65.3h38.3c15.5,0,26.2,2.2,32.6,6.7
						c6.8,4.6,10.3,13.1,10.3,24.8c0,11.7-3.4,20.6-9.7,25.8C960.1,978.2,948.8,980.8,932.5,980.8z"/>
				</g>
				<g>
					<polygon points="1283.6,897.7 1283.6,1053.7 1263,1053.7 1263,915.5 1200.7,1039.4 1189.5,1039.4 1127.3,915.4 1127.3,1053.7 
						1106.8,1053.7 1106.8,897.7 1143.9,897.7 1195.4,1004.4 1246.7,897.7 					"/>
				</g>
				<g>
					<path d="M1474,897.6h-25l-68.7,155.9h21.8l16.3-36.9h86l16.3,36.9h22L1474,897.6z M1426.6,998.2l34.8-79.2l34.8,79.2H1426.6z"
						/>
				</g>
				<g>
					<polygon points="1781.8,897.7 1781.8,1053.7 1757.1,1053.7 1659.9,928.3 1659.9,1053.7 1639.2,1053.7 1639.2,897.7 
						1661.7,897.7 1761.3,1025.8 1761.3,897.7 					"/>
				</g>
				<g>
					<polygon points="2040.3,897.7 2040.3,1053.7 2015.6,1053.7 1918.2,928.3 1918.2,1053.7 1897.6,1053.7 1897.6,897.7 1920,897.7 
						2019.7,1025.8 2019.7,897.7 					"/>
				</g>
			</g>
		</g>
		<g>
			<path d="M2388.1,906.9v-10.3H2283v157.3h11.5v-69.5h83.8v-10.3h-83.8v-67.3L2388.1,906.9L2388.1,906.9z"/>
			<path d="M2489.2,896.6v157.3h11.5V896.6L2489.2,896.6L2489.2,896.6z"/>
			<path d="M2632.2,1043.5V896.6h-11.5v157.3h101.9v-10.5L2632.2,1043.5L2632.2,1043.5z"/>
			<path d="M2980.1,896.6h-9.5l-70.3,121.5l-70.3-121.5h-9.7v157.3h11.1V919.8l65.9,113.2h5.6l65.9-113.6l0.2,134.6h11.3
				L2980.1,896.6z"/>
			<path d="M3102.6,937.1c0-17.3,13.7-31.4,44.3-31.4c14.1,0,30,4.2,43.1,13.1l4.2-9.1c-12.1-8.9-30-14.3-47.3-14.3
				c-38.7,0-55.8,19.5-55.8,41.9c0,58,98.3,29.6,98.3,76.8c0,17.1-14.1,30.8-45.5,30.8c-21.1,0-41.1-8.5-51.8-19.7l-5.2,8.5
				c11.5,12.7,33.8,21.3,57.2,21.3c38.9,0,56.6-19.3,56.6-41.5C3200.7,956.5,3102.6,984.2,3102.6,937.1z"/>
		</g>
	</g>
</g>
</svg>
