<?xml version="1.0" encoding="utf-8"?>
<!-- Generator: Adobe Illustrator 24.1.0, SVG Export Plug-In . SVG Version: 6.00 Build 0)  -->
<svg version="1.1" id="Calque_1" xmlns="http://www.w3.org/2000/svg" xmlns:xlink="http://www.w3.org/1999/xlink" x="0px" y="0px"
	 viewBox="0 0 14 16" style="enable-background:new 0 0 14 16;" xml:space="preserve">
<path d="M1.4,0.9L1.4,0.9c0.1,0,0.2,0,0.2,0.1l11.2,6.5C13,7.7,13,7.9,13,8c0,0.1,0,0.3-0.2,0.4L1.6,14.9c-0.1,0-0.2,0.1-0.2,0.1
	c-0.2,0-0.5-0.2-0.5-0.5V1.4C0.9,1.1,1.2,0.9,1.4,0.9 M1.4,0C0.7,0,0,0.6,0,1.4v13.2C0,15.4,0.7,16,1.4,16c0.2,0,0.5-0.1,0.7-0.2
	l11.2-6.5c0.9-0.6,0.9-1.9,0-2.5L2.1,0.3C1.9,0,1.7,0,1.4,0L1.4,0z"/>
</svg>
