<svg viewBox="0 0 160.9 160.9">

		<path d="M80.5,23.5c-31.4,0-56.9,25.5-56.9,56.9s25.5,56.9,56.9,56.9s56.9-25.5,56.9-56.9S111.8,23.5,80.5,23.5z M80.5,24
			c1.6,0,3.1,0.1,4.7,0.2L66.6,56.3c0,0,0,0,0,0L53.4,79.2l-18.4-32C45.2,33.2,61.8,24,80.5,24z M53.7,79.7l13.3-23h26.5l13.3,23
			l-13.3,23H66.9L53.7,79.7z M80.5,136.9c-31.1,0-56.4-25.3-56.4-56.4c0-12.2,3.9-23.6,10.6-32.8l18.5,32.2c0,0,0,0,0,0l13.2,22.9
			l-37.3,0c-0.1,0-0.2,0.1-0.2,0.2c0,0.1,0.1,0.2,0.2,0.2l37.5,0c0.1,0,0.1,0,0.1-0.1c0,0,0.1,0,0.1,0h26.8c0.1,0,0.2,0,0.2-0.1
			l13.4-23.2c0-0.1,0-0.2,0-0.2L93.8,56.3c0-0.1-0.1-0.1-0.2-0.1H67.2l18.5-31.9c20.3,1.9,37.4,14.5,45.8,32.1l-37.1,0
			c-0.1,0-0.2,0.1-0.2,0.2c0,0.1,0.1,0.2,0.2,0.2l37.3,0c3.3,7.2,5.2,15.1,5.2,23.6C136.9,111.6,111.6,136.9,80.5,136.9z"/>

		<path d="M80.5,7C39.9,7,7,39.9,7,80.5s33,73.5,73.5,73.5c40.5,0,73.5-33,73.5-73.5S121,7,80.5,7z M80.5,153.4
			c-40.2,0-73-32.7-73-73c0-40.2,32.7-73,73-73s73,32.7,73,73C153.4,120.7,120.7,153.4,80.5,153.4z"/>

		<path d="M80.5,0C36.1,0,0,36.1,0,80.5c0,44.4,36.1,80.5,80.5,80.5s80.5-36.1,80.5-80.5C160.9,36.1,124.8,0,80.5,0z M80.5,160.4
			c-44.1,0-80-35.9-80-80s35.9-80,80-80c44.1,0,80,35.9,80,80S124.5,160.4,80.5,160.4z"/>

		<path d="M93,103.4l-18.8,32.4c-0.1,0.1,0,0.3,0.1,0.3c0,0,0.1,0,0.1,0c0.1,0,0.2,0,0.2-0.1l18.8-32.4c0.1-0.1,0-0.3-0.1-0.3
			C93.2,103.3,93.1,103.3,93,103.4z"/>

		<path d="M126.3,112.9l-18.7-32.5c-0.1-0.1-0.2-0.2-0.3-0.1c-0.1,0.1-0.2,0.2-0.1,0.3l18.7,32.5c0,0.1,0.1,0.1,0.2,0.1
			c0,0,0.1,0,0.1,0C126.3,113.2,126.4,113.1,126.3,112.9z"/>

</svg>
