
<svg viewBox="0 0 16 16" >
<path d="M6.4,7.2H0.8C0.3,7.2,0,6.8,0,6.4V0.8C0,0.3,0.3,0,0.8,0h5.6c0.4,0,0.8,0.3,0.8,0.8v5.6C7.2,6.8,6.8,7.2,6.4,7.2z M1.5,5.6
	h4.1V1.5H1.5V5.6z"/>
<path d="M15.2,7.2H9.6c-0.4,0-0.8-0.3-0.8-0.8V0.8C8.8,0.3,9.2,0,9.6,0h5.6C15.7,0,16,0.3,16,0.8v5.6C16,6.8,15.7,7.2,15.2,7.2z
	 M10.4,5.6h4.1V1.5h-4.1V5.6z"/>
<path d="M15.2,16H9.6c-0.4,0-0.8-0.3-0.8-0.8V9.6c0-0.4,0.3-0.8,0.8-0.8h5.6c0.4,0,0.8,0.3,0.8,0.8v5.6C16,15.7,15.7,16,15.2,16z
	 M10.4,14.5h4.1v-4.1h-4.1V14.5z"/>
<path d="M6.4,16H0.8C0.3,16,0,15.7,0,15.2V9.6c0-0.4,0.3-0.8,0.8-0.8h5.6c0.4,0,0.8,0.3,0.8,0.8v5.6C7.2,15.7,6.8,16,6.4,16z
	 M1.5,14.5h4.1v-4.1H1.5V14.5z"/>
</svg>
